<?xml version="1.0" encoding="UTF-8" standalone="no"?>
<!DOCTYPE svg PUBLIC "-//W3C//DTD SVG 1.1//EN" "http://www.w3.org/Graphics/SVG/1.1/DTD/svg11.dtd">
<!-- Created with Vectornator (http://vectornator.io/) -->
<svg height="100%" stroke-miterlimit="10" style="fill-rule:nonzero;clip-rule:evenodd;stroke-linecap:round;stroke-linejoin:round;" version="1.1" viewBox="273.613 107.296 378.773 213.408" width="100%" xml:space="preserve" xmlns="http://www.w3.org/2000/svg" xmlns:vectornator="http://vectornator.io" xmlns:xlink="http://www.w3.org/1999/xlink">
<defs/>
<clipPath id="ArtboardFrame">
<rect height="213.408" width="378.773" x="273.613" y="107.296"/>
</clipPath>
<g clip-path="url(#ArtboardFrame)" id="Layer" vectornator:layerName="Layer">
<g opacity="1" vectornator:layerName="Agrupar 9">
<g opacity="1" vectornator:layerName="Agrupar 7">
<path d="M382.207 320.704C372.783 307.024 365.525 291.026 360.433 272.71C355.341 254.394 352.795 234.824 352.795 214C352.795 193.176 355.341 173.606 360.433 155.29C365.525 136.974 372.783 120.976 382.207 107.296L423.703 107.296C413.823 124.928 406.603 142.408 402.043 159.736C397.483 177.064 395.203 195.152 395.203 214C395.203 232.848 397.483 250.936 402.043 268.264C406.603 285.592 413.823 303.072 423.703 320.704L382.207 320.704Z" fill="#ffffff" fill-rule="nonzero" opacity="1" stroke="none"/>
<path d="M517.639 150.844C527.215 150.844 535.879 152.782 543.631 156.658C551.383 160.534 557.501 166.5 561.985 174.556C566.469 182.612 568.711 193.024 568.711 205.792L568.711 276.472L525.391 276.472L525.391 212.86C525.391 204.044 523.605 197.622 520.033 193.594C516.461 189.566 511.483 187.552 505.099 187.552C500.539 187.552 496.359 188.578 492.559 190.63C488.759 192.682 485.795 195.836 483.667 200.092C481.539 204.348 480.475 209.896 480.475 216.736L480.475 276.472L437.155 276.472L437.155 152.896L478.423 152.896L478.423 188.008L470.443 177.748C475.155 168.78 481.615 162.054 489.823 157.57C498.031 153.086 507.303 150.844 517.639 150.844Z" fill="#ffffff" fill-rule="nonzero" opacity="1" stroke="none"/>
<path d="M622.975 320.704L581.479 320.704C591.511 303.072 598.769 285.592 603.253 268.264C607.737 250.936 609.979 232.848 609.979 214C609.979 195.152 607.737 177.064 603.253 159.736C598.769 142.408 591.511 124.928 581.479 107.296L622.975 107.296C632.551 120.976 639.847 136.974 644.863 155.29C649.879 173.606 652.387 193.176 652.387 214C652.387 234.824 649.879 254.394 644.863 272.71C639.847 291.026 632.551 307.024 622.975 320.704Z" fill="#ffffff" fill-rule="nonzero" opacity="1" stroke="none"/>
</g>
<g opacity="1" vectornator:layerName="Agrupar 8">
<path d="M326.581 303.458L326.581 303.004C317.954 313.446 312.733 318.97 310.917 319.575C307.134 320.635 302.367 319.954 296.616 317.532C290.865 315.111 286.93 312.387 284.811 309.36C274.672 299.22 271.418 283.103 275.05 261.008L279.59 233.54C280.347 229.605 282.995 219.844 287.536 204.256L294.119 183.826C293.967 183.372 294.119 181.404 294.573 177.923C300.929 173.383 307.436 171.946 314.095 173.61C320.754 175.275 325.975 179.437 329.759 186.096C328.245 199.565 323.63 216.06 315.911 235.583C311.523 248.447 308.874 256.619 307.966 260.1C305.393 268.423 304.145 274.817 304.22 279.282C304.296 283.746 305.847 287.416 308.874 290.292C313.566 285.146 319.96 278.79 328.056 271.223C336.153 263.656 341.866 257.3 345.195 252.154C348.071 247.312 350.303 243.793 351.892 241.599C353.481 239.404 354.654 238.458 355.41 238.761C355.864 241.031 355.562 244.436 354.502 248.976C354.956 249.43 354.956 249.884 354.502 250.338C353.292 251.549 352.686 253.441 352.686 256.014L351.778 256.468L351.324 256.468C350.719 255.862 350.719 255.257 351.324 254.652C351.93 254.198 351.93 253.668 351.324 253.062C349.962 253.517 349.281 254.5 349.281 256.014L352.232 258.738C352.232 259.04 351.438 260.667 349.849 263.618C348.26 266.569 346.481 269.937 344.514 273.72C342.547 277.504 341.26 280.228 340.655 281.892L339.066 283.481L338.158 284.843L338.158 285.297C338.612 285.297 337.855 286.659 335.888 289.383C333.92 292.108 331.953 294.869 329.986 297.669C328.018 300.469 327.186 301.869 327.489 301.869C327.489 302.323 327.186 302.853 326.581 303.458ZM310.236 132.295C308.571 133.657 307.739 133.884 307.739 132.976C307.739 132.674 307.815 132.295 307.966 131.841L307.966 130.479C307.966 131.084 307.815 131.841 307.512 132.749L305.696 127.074L306.15 127.074C306.453 126.469 306.604 125.107 306.604 122.988C310.236 115.724 314.965 111.259 320.792 109.595C326.618 107.93 331.877 108.233 336.569 110.503C341.26 112.773 345.044 115.724 347.919 119.356C348.071 122.837 347.162 126.507 345.195 130.366C343.228 134.225 342.168 137.516 342.017 140.24C337.78 144.478 335.585 147.429 335.434 149.094C335.131 149.094 334.526 149.472 333.618 150.229C332.71 150.985 331.877 151.629 331.121 152.158C330.364 152.688 329.759 152.726 329.305 152.272C326.278 154.239 322.986 154.996 319.43 154.542C315.873 154.088 312.809 152.537 310.236 149.888C307.663 147.24 307.058 144.478 308.42 141.602C309.025 141.754 309.404 142.586 309.555 144.1L309.782 146.143C310.387 143.57 310.501 141.262 310.123 139.219C309.744 137.176 309.782 134.868 310.236 132.295ZM278.682 279.168C278.228 274.023 278.682 267.515 280.044 259.646L282.541 244.209C287.082 233.162 289.352 224.535 289.352 218.331C288.898 218.331 288.406 219.012 287.876 220.374C287.346 221.736 286.779 222.417 286.173 222.417C286.173 221.66 286.476 220.033 287.082 217.536C287.687 215.039 287.99 213.412 287.99 212.655C279.363 237.021 276.261 259.192 278.682 279.168ZM288.898 216.969C289.806 216.666 290.6 215.909 291.281 214.698C291.962 213.488 292.416 212.277 292.643 211.066C292.87 209.856 293.097 208.607 293.324 207.321C293.551 206.034 293.665 205.316 293.665 205.164C293.211 205.164 292.795 205.58 292.416 206.413C292.038 207.245 291.622 208.191 291.168 209.25C290.714 210.31 290.26 210.991 289.806 211.293C289.503 210.991 289.352 209.931 289.352 208.115L288.444 208.115C288.141 208.418 287.99 208.721 287.99 209.023L287.536 209.931C288.141 211.142 288.898 211.899 289.806 212.201C289.957 212.958 289.843 213.866 289.465 214.925C289.087 215.985 288.898 216.666 288.898 216.969ZM287.082 257.376C289.806 251.171 291.168 245.269 291.168 239.669C288.444 247.993 287.082 253.895 287.082 257.376ZM289.352 205.164C292.53 203.802 294.119 200.246 294.119 194.495C291.243 199.943 289.654 203.499 289.352 205.164ZM308.42 134.565C308.42 138.651 308.269 140.846 307.966 141.148C305.545 136.76 305.696 134.565 308.42 134.565ZM286.628 269.861C286.476 268.953 286.628 265.245 287.082 258.738C284.811 261.462 284.357 265.321 285.719 270.315C285.568 270.164 285.568 270.05 285.719 269.974C285.871 269.899 286.173 269.861 286.628 269.861ZM336.342 286.205C337.25 286.205 337.704 285.903 337.704 285.297C337.25 284.843 336.796 285.146 336.342 286.205C335.434 285.449 334.904 285.108 334.753 285.184C334.601 285.26 333.618 285.903 331.802 287.113C330.591 285.903 329.002 286.054 327.035 287.567L328.397 287.113L331.802 287.113C332.407 286.962 333.088 286.811 333.845 286.659C334.601 286.508 335.169 286.395 335.547 286.319C335.926 286.243 336.191 286.205 336.342 286.205ZM341.109 272.585L343.379 267.591L342.925 267.591C342.925 267.894 342.547 268.612 341.79 269.747C341.033 270.882 340.806 271.828 341.109 272.585ZM285.265 275.082L285.265 272.585L284.357 272.585C284.811 274.098 285.114 274.931 285.265 275.082ZM292.757 236.491L291.849 238.761C292.454 238.156 292.757 237.399 292.757 236.491ZM348.827 258.738L349.962 258.738C349.962 258.284 349.811 257.943 349.508 257.716C349.206 257.489 348.979 257.527 348.827 257.83L348.827 258.738ZM278.682 281.438L278.682 282.8C279.136 282.8 279.136 282.346 278.682 281.438ZM327.489 301.869L326.581 303.004L327.489 301.869Z" fill="#ffffff" fill-rule="nonzero" opacity="1" stroke="none"/>
</g>
</g>
</g>
</svg>
