<?xml version="1.0" encoding="UTF-8" standalone="no"?>
<!DOCTYPE svg PUBLIC "-//W3C//DTD SVG 1.1//EN" "http://www.w3.org/Graphics/SVG/1.1/DTD/svg11.dtd">
<!-- Created with Vectornator (http://vectornator.io/) -->
<svg height="100%" stroke-miterlimit="10" style="fill-rule:nonzero;clip-rule:evenodd;stroke-linecap:round;stroke-linejoin:round;" version="1.1" viewBox="0 0 1309.31 139.57" width="100%" xml:space="preserve" xmlns="http://www.w3.org/2000/svg" xmlns:xlink="http://www.w3.org/1999/xlink">
<defs/>
<clipPath id="ArtboardFrame">
<rect height="139.57" width="1309.31" x="0" y="0"/>
</clipPath>
<g clip-path="url(#ArtboardFrame)" id="Camada-1" visibility="hidden">
<g opacity="1">
<path d="M552.805 213.41C543.381 199.73 536.123 183.732 531.031 165.416C525.939 147.099 523.393 127.529 523.393 106.705C523.393 85.8808 525.939 66.3106 531.031 47.9944C536.123 29.6783 543.381 13.6801 552.805 0L594.301 0C584.421 17.6322 577.201 35.1123 572.641 52.4405C568.081 69.7687 565.801 87.8568 565.801 106.705C565.801 125.553 568.081 143.641 572.641 160.97C577.201 178.298 584.421 195.778 594.301 213.41L552.805 213.41Z" fill="#ff6600" fill-rule="nonzero" opacity="1" stroke="none"/>
<path d="M688.237 43.5484C697.813 43.5484 706.477 45.4864 714.229 49.3625C721.981 53.2385 728.099 59.2046 732.583 67.2606C737.067 75.3167 739.309 85.7288 739.309 98.4969L739.309 169.178L695.989 169.178L695.989 105.565C695.989 96.7489 694.203 90.3268 690.631 86.2988C687.059 82.2708 682.081 80.2568 675.697 80.2568C671.137 80.2568 666.957 81.2828 663.157 83.3348C659.357 85.3868 656.393 88.5408 654.265 92.7969C652.137 97.0529 651.073 102.601 651.073 109.441L651.073 169.178L607.753 169.178L607.753 45.6004L649.021 45.6004L649.021 80.7128L641.041 70.4527C645.753 61.4846 652.213 54.7585 660.421 50.2745C668.629 45.7904 677.901 43.5484 688.237 43.5484Z" fill="#ff6600" fill-rule="nonzero" opacity="1" stroke="none"/>
<path d="M832.789 171.23C818.197 171.23 805.467 168.456 794.599 162.908C783.731 157.359 775.295 149.759 769.291 140.107C763.287 130.455 760.285 119.473 760.285 107.161C760.285 94.8489 763.211 83.8668 769.063 74.2147C774.915 64.5626 783.009 57.0385 793.345 51.6425C803.681 46.2464 815.309 43.5484 828.229 43.5484C840.389 43.5484 851.485 46.0184 861.517 50.9585C871.549 55.8985 879.529 63.1566 885.457 72.7327C891.385 82.3088 894.349 93.9369 894.349 107.617C894.349 109.137 894.273 110.885 894.121 112.861C893.969 114.837 893.817 116.661 893.665 118.333L795.853 118.333L795.853 95.5329L870.637 95.5329L854.221 101.917C854.373 96.2929 853.347 91.4289 851.143 87.3248C848.939 83.2208 845.899 80.0288 842.023 77.7487C838.147 75.4687 833.625 74.3287 828.457 74.3287C823.289 74.3287 818.767 75.4687 814.891 77.7487C811.015 80.0288 808.013 83.2588 805.885 87.4388C803.757 91.6189 802.693 96.5209 802.693 102.145L802.693 108.757C802.693 114.837 803.947 120.081 806.455 124.489C808.963 128.897 812.573 132.279 817.285 134.635C821.997 136.991 827.621 138.169 834.157 138.169C840.237 138.169 845.443 137.295 849.775 135.547C854.107 133.799 858.401 131.101 862.657 127.453L885.457 151.165C879.529 157.701 872.233 162.68 863.569 166.1C854.905 169.52 844.645 171.23 832.789 171.23Z" fill="#ff6600" fill-rule="nonzero" opacity="1" stroke="none"/>
<path d="M941.545 169.178L897.541 45.6004L938.581 45.6004L973.465 148.885L953.857 148.885L990.11 45.6004L1027.05 45.6004L1061.93 148.885L1042.78 148.885L1078.8 45.6004L1116.88 45.6004L1072.87 169.178L1030.92 169.178L1001.28 83.6768L1014.05 83.6768L983.497 169.178L941.545 169.178Z" fill="#ff6600" fill-rule="nonzero" opacity="1" stroke="none"/>
<path d="M1172.97 171.23C1162.48 171.23 1152.26 170.014 1142.3 167.582C1132.34 165.15 1124.33 162.11 1118.25 158.461L1131.24 128.821C1137.02 132.317 1143.78 135.091 1151.53 137.143C1159.29 139.195 1166.89 140.221 1174.33 140.221C1181.63 140.221 1186.68 139.461 1189.5 137.941C1192.31 136.421 1193.71 134.369 1193.71 131.785C1193.71 129.353 1192.38 127.567 1189.72 126.427C1187.06 125.287 1183.57 124.413 1179.24 123.805C1174.9 123.197 1170.15 122.513 1164.99 121.753C1159.82 120.993 1154.61 119.967 1149.37 118.675C1144.12 117.383 1139.34 115.407 1135 112.747C1130.67 110.087 1127.21 106.477 1124.63 101.917C1122.05 97.3569 1120.75 91.5809 1120.75 84.5888C1120.75 76.6847 1123.07 69.6547 1127.71 63.4986C1132.34 57.3425 1139.15 52.4785 1148.11 48.9065C1157.08 45.3344 1168.03 43.5484 1180.95 43.5484C1189.61 43.5484 1198.39 44.4224 1207.28 46.1704C1216.17 47.9184 1223.66 50.5405 1229.74 54.0365L1216.74 83.4488C1210.66 79.9527 1204.58 77.5587 1198.5 76.2667C1192.42 74.9747 1186.65 74.3287 1181.17 74.3287C1173.88 74.3287 1168.75 75.1647 1165.78 76.8367C1162.82 78.5087 1161.34 80.5608 1161.34 82.9928C1161.34 85.4248 1162.63 87.2868 1165.21 88.5788C1167.8 89.8708 1171.26 90.8589 1175.59 91.5429C1179.92 92.2269 1184.67 92.9109 1189.84 93.5949C1195.01 94.2789 1200.21 95.3049 1205.46 96.6729C1210.7 98.0409 1215.49 100.055 1219.82 102.715C1224.15 105.375 1227.61 108.947 1230.19 113.431C1232.78 117.915 1234.07 123.653 1234.07 130.645C1234.07 138.245 1231.75 145.085 1227.12 151.165C1222.48 157.245 1215.64 162.11 1206.6 165.758C1197.55 169.406 1186.34 171.23 1172.97 171.23Z" fill="#ff6600" fill-rule="nonzero" opacity="1" stroke="none"/>
<path d="M1279.9 213.41L1238.4 213.41C1248.43 195.778 1255.69 178.298 1260.18 160.97C1264.66 143.641 1266.9 125.553 1266.9 106.705C1266.9 87.8568 1264.66 69.7687 1260.18 52.4405C1255.69 35.1123 1248.43 17.6322 1238.4 0L1279.9 0C1289.47 13.6801 1296.77 29.6783 1301.79 47.9944C1306.8 66.3106 1309.31 85.8808 1309.31 106.705C1309.31 127.529 1306.8 147.099 1301.79 165.416C1296.77 183.732 1289.47 199.73 1279.9 213.41Z" fill="#ff6600" fill-rule="nonzero" opacity="1" stroke="none"/>
</g>
<g opacity="1">
<path d="M52.1013 194.786L52.1013 194.34C43.6161 204.611 38.4803 210.045 36.694 210.64C32.9724 211.682 28.2832 211.012 22.6264 208.631C16.9696 206.249 13.0991 203.569 11.0151 200.592C1.04122 190.618-2.15934 174.764 1.41338 153.03L5.87928 126.011C6.6236 122.14 9.2287 112.539 13.6946 97.2056L20.1702 77.1089C20.0213 76.6623 20.1702 74.727 20.6167 71.3032C26.869 66.8372 33.2701 65.423 39.8201 67.0605C46.3701 68.698 51.5059 72.7918 55.2275 79.3418C53.7388 92.5908 49.1985 108.817 41.6065 128.021C37.2894 140.674 34.6843 148.713 33.7911 152.137C31.2605 160.324 30.0323 166.614 30.1068 171.005C30.1812 175.397 31.7071 179.007 34.6843 181.835C39.2991 176.774 45.5886 170.521 53.5527 163.078C61.5169 155.635 67.1365 149.383 70.4115 144.321C73.2399 139.558 75.4356 136.096 76.9987 133.938C78.5618 131.779 79.7155 130.849 80.4598 131.147C80.9064 133.38 80.6086 136.729 79.5666 141.195C80.0132 141.642 80.0132 142.088 79.5666 142.535C78.3757 143.726 77.7802 145.587 77.7802 148.117L76.8871 148.564L76.4405 148.564C75.845 147.968 75.845 147.373 76.4405 146.777C77.0359 146.331 77.0359 145.81 76.4405 145.214C75.1007 145.661 74.4308 146.629 74.4308 148.117L77.3337 150.797C77.3337 151.094 76.5521 152.695 74.9891 155.598C73.426 158.501 71.6768 161.813 69.7416 165.534C67.8064 169.256 66.5411 171.936 65.9456 173.573L64.3825 175.136L63.4894 176.476L63.4894 176.922C63.936 176.922 63.1916 178.262 61.2564 180.942C59.3212 183.621 57.386 186.338 55.4507 189.092C53.5155 191.846 52.6968 193.223 52.9945 193.223C52.9945 193.67 52.6968 194.191 52.1013 194.786ZM36.0241 26.4205C34.3866 27.7603 33.5678 27.9836 33.5678 27.0904C33.5678 26.7927 33.6423 26.4205 33.7911 25.9739L33.7911 24.6342C33.7911 25.2296 33.6423 25.9739 33.3446 26.8671L31.5582 21.2847L32.0048 21.2847C32.3025 20.6892 32.4514 19.3495 32.4514 17.2654C36.0241 10.1199 40.6761 5.72837 46.4073 4.09086C52.1385 2.45336 57.3115 2.75108 61.9263 4.98405C66.5411 7.21702 70.2626 10.1199 73.091 13.6926C73.2399 17.1165 72.3467 20.7265 70.4115 24.5225C68.4763 28.3186 67.4342 31.5564 67.2854 34.2359C63.1172 38.4041 60.9587 41.307 60.8098 42.9445C60.5121 42.9445 59.9166 43.3166 59.0235 44.061C58.1303 44.8053 57.3115 45.438 56.5672 45.959C55.8229 46.48 55.2275 46.5172 54.7809 46.0706C51.8036 48.0059 48.5658 48.7502 45.0675 48.3036C41.5692 47.857 38.5548 46.3311 36.0241 43.726C33.4934 41.1209 32.898 38.4041 34.2377 35.5757C34.8332 35.7246 35.2053 36.5433 35.3542 38.032L35.5775 40.0416C36.173 37.5109 36.2846 35.2407 35.9124 33.2311C35.5403 31.2214 35.5775 28.9512 36.0241 26.4205ZM4.9861 170.893C4.53951 165.832 4.9861 159.431 6.32587 151.69L8.78212 136.506C13.248 125.639 15.481 117.153 15.481 111.05C15.0344 111.05 14.5506 111.72 14.0295 113.06C13.5085 114.399 12.9503 115.069 12.3548 115.069C12.3548 114.325 12.6526 112.725 13.248 110.268C13.8435 107.812 14.1412 106.212 14.1412 105.468C5.65599 129.435 2.60429 151.243 4.9861 170.893ZM15.0344 109.71C15.9276 109.412 16.7091 108.668 17.379 107.477C18.0489 106.286 18.4954 105.095 18.7187 103.904C18.942 102.714 19.1653 101.485 19.3886 100.22C19.6119 98.9547 19.7236 98.2476 19.7236 98.0988C19.277 98.0988 18.8676 98.5081 18.4954 99.3269C18.1233 100.146 17.7139 101.076 17.2673 102.118C16.8207 103.16 16.3741 103.83 15.9276 104.128C15.6298 103.83 15.481 102.788 15.481 101.002L14.5878 101.002C14.2901 101.299 14.1412 101.597 14.1412 101.895L13.6946 102.788C14.2901 103.979 15.0344 104.723 15.9276 105.021C16.0764 105.765 15.9648 106.658 15.5926 107.701C15.2205 108.743 15.0344 109.412 15.0344 109.71ZM13.248 149.457C15.9276 143.354 17.2673 137.548 17.2673 132.04C14.5878 140.227 13.248 146.033 13.248 149.457ZM15.481 98.0988C18.6071 96.759 20.1702 93.2607 20.1702 87.6038C17.3418 92.9629 15.7787 96.4612 15.481 98.0988ZM34.2377 28.6535C34.2377 32.6728 34.0889 34.8314 33.7911 35.1291C31.4093 30.812 31.5582 28.6535 34.2377 28.6535ZM12.8014 161.738C12.6526 160.845 12.8014 157.198 13.248 150.797C11.0151 153.476 10.5685 157.272 11.9082 162.185C11.7594 162.036 11.7594 161.924 11.9082 161.85C12.0571 161.776 12.3548 161.738 12.8014 161.738ZM61.703 177.816C62.5962 177.816 63.0428 177.518 63.0428 176.922C62.5962 176.476 62.1496 176.774 61.703 177.816C60.8098 177.071 60.2888 176.736 60.1399 176.811C59.9911 176.885 59.0235 177.518 57.2371 178.709C56.0462 177.518 54.4831 177.667 52.5479 179.155L53.8877 178.709L57.2371 178.709C57.8326 178.56 58.5024 178.411 59.2468 178.262C59.9911 178.113 60.5493 178.002 60.9215 177.927C61.2936 177.853 61.5541 177.816 61.703 177.816ZM66.3922 164.418L68.6251 159.505L68.1786 159.505C68.1786 159.803 67.8064 160.51 67.0621 161.627C66.3178 162.743 66.0945 163.674 66.3922 164.418ZM11.4617 166.874L11.4617 164.418L10.5685 164.418C11.0151 165.907 11.3128 166.725 11.4617 166.874ZM18.8304 128.914L17.9372 131.147C18.5327 130.551 18.8304 129.807 18.8304 128.914ZM73.9842 150.797L75.1007 150.797C75.1007 150.35 74.9518 150.015 74.6541 149.792C74.3564 149.569 74.1331 149.606 73.9842 149.904L73.9842 150.797ZM4.9861 173.126L4.9861 174.466C5.43269 174.466 5.43269 174.02 4.9861 173.126ZM52.9945 193.223L52.1013 194.34L52.9945 193.223Z" fill="#003366" fill-rule="nonzero" opacity="1" stroke="none"/>
<path d="M184.449 36.316C190.004 43.062 192.187 49.2127 190.996 54.7682C186.499 61.5142 181.605 76.6596 176.314 100.204C171.288 124.146 168.973 147.029 169.37 168.854C169.766 190.812 174.528 202.187 183.655 202.981C187.359 206.288 187.491 208.735 184.052 210.322C182.332 210.322 180.15 210.587 177.504 211.116C168.774 209.132 161.764 199.41 156.473 181.95C148.669 155.098 146.222 120.773 149.132 78.9744C149.132 78.7098 149.396 76.7257 149.925 73.022C149.793 73.2866 148.437 75.8659 145.858 80.7601C143.279 85.6542 140.534 89.424 137.624 92.0695C135.772 95.6409 132.532 100.535 127.902 106.752L119.37 118.458C118.841 118.458 118.577 118.723 118.577 119.252L118.577 120.442L117.783 120.442L117.783 119.649L118.18 119.252C113.55 123.881 109.252 131.487 105.283 142.069C110.045 135.588 116.923 125.402 125.918 111.514C136.235 96.0377 143.973 85.1912 149.132 78.9744C148.206 80.6939 143.709 87.506 135.64 99.4107L119.767 124.609C115.799 131.355 111.632 140.151 107.267 150.997C102.902 161.844 99.9263 171.831 98.339 180.958C97.2808 182.545 95.6936 183.504 93.5772 183.834C91.4608 184.165 89.609 183.537 88.0217 181.95C87.7572 181.95 87.3604 182.214 86.8313 182.743L86.0376 182.743C85.5085 182.214 84.3842 181.42 82.6647 180.362C80.9451 179.304 79.8869 178.577 79.4901 178.18L78.4981 179.172C77.8367 179.833 77.2415 180.164 76.7124 180.164C74.1992 175.005 72.7442 168.656 72.3474 161.116C72.0828 155.296 72.6119 147.029 73.9347 136.315C74.9929 127.982 75.5219 121.765 75.5219 117.664C80.2838 95.8393 82.8631 84.596 83.2599 83.9346C90.0058 59.3317 96.6195 39.1599 103.101 23.4193C104.291 22.6257 107.863 22.2288 113.815 22.2288C120.958 24.6098 124.86 26.0648 125.521 26.5939C125.786 27.123 126.976 28.9418 129.092 32.0502C131.209 35.1586 132.465 37.5726 132.862 39.2922L113.22 82.7442C112.426 85.6542 110.442 91.8711 107.267 101.395C103.828 110.919 101.778 118.26 101.117 123.418C105.879 117.466 108.722 112.704 109.648 109.133C132.267 71.0379 149.33 47.2286 160.838 37.7049C164.409 33.0753 172.28 32.6124 184.449 36.316ZM81.2758 126.99C83.1276 114.953 86.5006 100.469 91.3947 83.5378C97.2147 62.7708 100.191 52.0566 100.323 51.3952C99.1327 53.7762 97.3139 58.4719 94.8669 65.4824C92.4198 72.4929 90.9979 76.4612 90.6011 77.3871L89.8074 76.7918C89.2783 76.395 89.0138 75.9321 89.0138 75.403L92.5851 62.9031C88.3524 70.3104 85.1117 81.3553 82.8631 96.0377C82.9954 96.0377 83.326 95.8723 83.8551 95.5417C84.3842 95.211 84.7149 95.1118 84.8472 95.244C85.6408 99.08 85.1117 101.395 83.2599 102.188C83.1276 101.659 83.1276 100.965 83.2599 100.105C83.3922 99.2453 83.4252 98.4186 83.3591 97.625C83.293 96.8313 82.9954 96.4345 82.4663 96.4345C81.6726 98.0218 81.2758 100.204 81.2758 102.982C81.4081 102.321 81.8049 101.99 82.4663 101.99C83.1276 101.99 83.5245 102.321 83.6567 102.982C83.6567 107.744 82.9954 110.588 81.6726 111.514L80.0854 110.323C78.3658 121.567 77.6383 127.519 77.9029 128.18C74.8606 138.63 73.9347 152.188 75.1251 168.854C76.1833 169.251 76.7124 168.854 76.7124 167.664C76.7124 167.532 76.4479 167.267 75.9188 166.87C75.3897 166.474 75.1251 166.209 75.1251 166.077C75.5219 165.944 75.8526 165.184 76.1172 163.795C76.3817 162.406 76.7124 161.646 77.1092 161.513C76.5801 161.381 76.2825 160.918 76.2164 160.124C76.1502 159.331 76.1833 158.537 76.3156 157.743C76.4479 156.95 76.4479 156.156 76.3156 155.363C76.8447 155.098 77.3738 154.966 77.9029 154.966C77.7706 154.569 77.9029 153.246 78.2997 150.997L77.9029 150.997L77.9029 150.204C78.4319 150.204 78.6965 150.336 78.6965 150.601C80.0192 147.691 79.6224 145.376 77.506 143.656C79.6224 141.54 80.879 135.984 81.2758 126.99ZM98.339 84.7283C98.4713 84.3314 98.802 83.2402 99.3311 81.4545C99.8602 79.6688 100.356 77.7839 100.819 75.7998C101.282 73.8157 101.514 72.1622 101.514 70.8395C101.249 70.8395 100.984 70.7072 100.72 70.4427L100.72 70.0459C100.588 70.1781 100.455 70.4427 100.323 70.8395C100.191 71.2363 100.025 71.7654 99.8271 72.4268C99.6287 73.0882 99.3972 73.6834 99.1327 74.2125C99.1327 74.3448 99.3311 74.6093 99.7279 75.0061C100.125 75.403 100.323 75.6675 100.323 75.7998C99.9263 76.858 99.1327 77.3871 97.9422 77.3871L89.4106 107.149C89.9397 107.678 90.2042 107.546 90.2042 106.752L90.6011 105.958C90.9979 105.826 91.3286 105.76 91.5931 105.76C91.8576 105.76 92.0561 105.793 92.1883 105.859C92.3206 105.925 92.4529 105.958 92.5851 105.958L92.7836 104.966C92.9158 104.305 92.982 103.776 92.982 103.379C92.982 103.247 92.7174 103.048 92.1883 102.784C91.6592 102.519 91.3947 102.321 91.3947 102.188C91.3947 102.056 91.527 101.924 91.7915 101.792C92.0561 101.659 92.3537 101.527 92.6843 101.395C93.015 101.263 93.3126 100.998 93.5772 100.601C93.8417 100.204 93.9079 99.8075 93.7756 99.4107C92.5851 99.4107 92.2545 99.0139 92.7836 98.2202C93.0481 97.6911 93.5111 97.4266 94.1724 97.4266C94.1724 97.2943 94.2386 96.9636 94.3708 96.4345C94.5031 95.9054 94.5692 95.3763 94.5692 94.8472L94.1724 94.4504L93.3788 93.6568C93.3788 93.1277 93.7756 92.797 94.5692 92.6647L95.7597 92.4663C96.9501 90.879 97.0824 88.5642 96.1565 85.5219C96.4211 85.2574 96.7517 85.1251 97.1486 85.1251C97.4131 84.8605 97.8099 84.7283 98.339 84.7283ZM153.1 85.1251C155.084 82.7442 156.87 77.7178 158.457 70.0459C160.044 62.2417 160.97 58.2074 161.235 57.9428C159.78 59.9269 158.325 63.2999 156.87 68.0618C155.679 72.8236 153.894 75.9321 151.513 77.3871L154.29 77.3871C154.29 78.4453 154.026 78.9744 153.497 78.9744C153.365 78.9744 153.034 78.9082 152.505 78.7759C151.976 78.6437 151.645 78.5775 151.513 78.5775C150.984 79.1066 150.984 80.0987 151.513 81.5537C152.306 81.5537 152.968 81.8182 153.497 82.3473C153.497 82.4796 153.431 82.7111 153.298 83.0418C153.166 83.3725 153.067 83.6701 153.001 83.9346C152.935 84.1992 152.968 84.596 153.1 85.1251ZM132.465 85.1251C130.878 85.6542 129.886 85.9187 129.489 85.9187C128.96 87.506 127.108 90.6145 123.934 95.244C120.759 99.8736 118.841 102.982 118.18 104.569C119.899 102.85 124.661 96.3684 132.465 85.1251ZM152.306 97.8234C153.497 91.7388 153.894 87.9028 153.497 86.3156C152.835 86.5801 152.472 87.1753 152.406 88.1013C152.339 89.0272 152.571 89.8208 153.1 90.4822C152.968 90.4822 152.869 90.5814 152.802 90.7798C152.736 90.9782 152.604 91.1766 152.406 91.375C152.207 91.5734 151.91 91.6727 151.513 91.6727C150.984 91.1436 150.951 89.7216 151.414 87.4068C151.876 85.092 152.042 83.6701 151.91 83.141L151.513 82.7442L150.719 82.7442C150.719 83.4055 150.686 84.4637 150.62 85.9187C150.554 87.3737 150.488 88.5642 150.421 89.4901C150.355 90.416 150.455 91.4081 150.719 92.4663C150.984 93.5245 151.38 94.3181 151.91 94.8472C151.91 95.3763 151.645 95.6409 151.116 95.6409C150.322 96.0377 149.925 96.5006 149.925 97.0297C150.19 97.0297 150.322 97.2943 150.322 97.8234L152.306 97.8234ZM108.458 120.839C112.029 118.061 114.609 113.762 116.196 107.942C115.402 108.471 114.509 109.563 113.517 111.216C112.525 112.87 111.533 114.721 110.541 116.772C109.549 118.822 108.855 120.178 108.458 120.839ZM89.8074 81.1569L89.0138 79.3712C89.4106 78.5775 90.2042 78.1807 91.3947 78.1807C90.9979 81.3553 90.3365 83.6701 89.4106 85.1251C89.0138 85.1251 88.4185 84.7283 87.6249 83.9346C87.6249 82.0828 88.3524 81.1569 89.8074 81.1569ZM80.879 103.776C80.0854 107.083 79.9531 109.001 80.4822 109.53C82.0695 107.016 82.2017 105.098 80.879 103.776ZM86.4345 90.0854C87.3604 88.2335 88.2201 87.506 89.0138 87.9028C89.0138 89.3579 88.8815 90.2176 88.617 90.4822C87.8233 90.879 87.0958 90.7467 86.4345 90.0854ZM132.465 85.1251C133.524 84.0669 134.846 82.1489 136.434 79.3712C134.582 80.4294 133.259 82.3473 132.465 85.1251ZM82.4663 111.514C83.2599 111.911 83.3922 112.903 82.8631 114.49L81.2758 114.49C81.2758 113.299 81.6726 112.307 82.4663 111.514ZM80.4822 125.402C80.0854 125.006 79.9862 124.377 80.1846 123.518C80.383 122.658 80.7467 122.228 81.2758 122.228C81.6726 124.344 81.4081 125.402 80.4822 125.402ZM153.894 67.6649C153.894 68.0618 153.761 68.5909 153.497 69.2522C153.232 69.9136 153.1 70.3104 153.1 70.4427L154.687 70.4427C155.481 68.5909 155.216 67.6649 153.894 67.6649ZM85.6408 94.4504L84.8472 93.6568C86.699 91.8049 87.6249 91.6727 87.6249 93.2599L85.6408 94.4504ZM101.91 131.95C103.233 131.553 103.894 130.164 103.894 127.783C103.365 127.916 102.902 128.643 102.506 129.966L101.91 131.95ZM116.593 107.546C117.651 107.546 118.18 107.016 118.18 105.958C118.048 105.958 117.849 105.826 117.585 105.561C117.32 105.297 117.122 105.165 116.989 105.165C116.725 105.429 116.593 106.223 116.593 107.546ZM158.457 158.736C158.854 160.587 159.383 161.513 160.044 161.513C160.97 160.058 160.441 159.132 158.457 158.736ZM160.044 165.68C159.78 165.812 159.714 166.341 159.846 167.267C159.978 168.193 160.309 168.722 160.838 168.854L160.838 167.267C160.838 166.209 160.573 165.68 160.044 165.68ZM152.703 72.2284C152.703 72.3607 152.637 72.5591 152.505 72.8236C152.372 73.0882 152.273 73.3527 152.207 73.6173C152.141 73.8818 152.174 74.2125 152.306 74.6093L153.497 74.6093C153.365 74.477 153.265 74.2125 153.199 73.8157C153.133 73.4189 153.067 73.0551 153.001 72.7244C152.935 72.3937 152.835 72.2284 152.703 72.2284ZM79.4901 132.347C79.3579 131.818 79.4901 131.223 79.8869 130.561L80.4822 129.768C80.7467 130.032 80.7798 130.561 80.5814 131.355C80.383 132.148 80.0192 132.479 79.4901 132.347ZM104.688 125.799L104.688 126.99C105.217 127.122 105.614 126.891 105.879 126.295C106.143 125.7 105.945 125.402 105.283 125.402L104.688 125.799ZM81.2758 116.077L81.6726 115.68C81.9372 115.68 82.2017 115.813 82.4663 116.077C82.4663 116.342 82.5985 116.606 82.8631 116.871L81.2758 116.871L81.2758 116.077ZM89.8074 110.72L89.8074 111.514C90.4688 111.778 90.8656 111.844 90.9979 111.712C91.1301 111.58 91.1301 111.249 90.9979 110.72L89.8074 110.72ZM81.2758 118.458L82.0695 118.458L82.0695 119.649C81.8049 119.649 81.5734 119.483 81.375 119.153C81.1766 118.822 81.1435 118.59 81.2758 118.458ZM137.624 77.3871L138.021 76.9902L138.021 76.1966C137.756 76.1966 137.492 76.3289 137.227 76.5934C136.169 77.1225 136.301 77.3871 137.624 77.3871ZM106.077 125.006L106.474 124.609C106.738 124.344 106.871 124.08 106.871 123.815C106.606 123.551 106.342 123.418 106.077 123.418C105.812 123.683 105.68 124.014 105.68 124.41C105.68 124.807 105.812 125.006 106.077 125.006ZM88.0217 113.101C88.9476 113.101 89.4106 112.704 89.4106 111.911L88.617 111.911C88.617 112.307 88.4185 112.704 88.0217 113.101ZM89.0138 110.323C89.5429 109.794 89.6751 109.265 89.4106 108.736L89.4106 109.53C89.146 109.794 89.0138 110.059 89.0138 110.323ZM101.514 48.2207L101.514 49.0143L101.117 49.4111L101.91 49.4111C102.307 48.6175 102.175 48.2207 101.514 48.2207ZM147.941 66.0776C148.735 66.0776 149.132 65.9454 149.132 65.6808C148.338 65.284 147.941 65.4163 147.941 66.0776ZM107.267 123.418C107.664 122.625 107.664 122.228 107.267 122.228C106.474 123.022 106.474 123.418 107.267 123.418ZM80.4822 127.783L80.4822 126.99L80.879 126.99L80.879 127.783L80.4822 127.783ZM154.687 67.2681L154.687 66.8713L154.29 66.8713L154.29 67.2681L154.687 67.2681ZM159.647 163.894C159.647 164.556 159.78 164.886 160.044 164.886C160.044 164.489 159.912 164.159 159.647 163.894Z" fill="#003366" fill-rule="nonzero" opacity="1" stroke="none"/>
<path d="M224.131 80.3632C226.644 81.9505 230.083 84.0338 234.448 86.6132C238.813 89.1925 241.723 91.0113 243.178 92.0695C246.485 94.0536 251.908 97.9557 259.447 103.776C272.939 113.299 278.627 123.352 276.511 133.934C276.775 137.506 274.989 143.458 271.154 151.791C265.598 158.008 260.043 163.696 254.487 168.854C249.064 173.881 242.186 178.014 233.853 181.255C225.519 184.496 217.385 185.389 209.448 183.934L200.917 176.592C196.155 171.831 193.443 166.937 192.782 161.91C189.74 157.545 188.814 153.511 190.004 149.807C190.93 150.468 192.319 151.824 194.171 153.874C196.023 155.925 197.907 157.644 199.825 159.033C201.743 160.422 203.827 161.249 206.075 161.513C235.043 157.942 252.569 144.252 258.654 120.442C254.95 116.739 249.13 112.836 241.194 108.736C232.067 103.842 224.891 99.0469 219.666 94.3512C214.442 89.6555 211.035 84.0008 209.448 77.3871C208.39 69.7152 209.316 63.2338 212.226 57.9428C227.966 41.4086 253.032 28.115 287.423 18.0622L292.383 18.0622C302.172 20.0463 307.859 25.4696 309.447 34.3319C298.468 39.0938 288.944 43.062 280.876 46.2366C266.061 51.9243 254.421 57.2484 245.956 62.2086C237.49 67.1689 230.215 73.2204 224.131 80.3632ZM259.051 47.0302C257.992 47.0302 257.463 47.2948 257.463 47.8239C257.992 47.8239 258.521 47.5593 259.051 47.0302ZM254.487 49.0143C253.429 48.6175 252.503 49.0143 251.709 50.2048C253.561 50.6016 254.487 50.2048 254.487 49.0143ZM224.924 66.0776C227.834 63.6967 231.868 61.2497 237.027 58.7364C242.45 56.091 246.418 53.7762 248.932 51.7921C240.598 54.8344 232.596 59.5962 224.924 66.0776ZM236.233 43.6572C230.281 44.4509 224.461 48.2868 218.773 55.1651C228.033 50.2709 233.985 46.8318 236.63 44.8477C236.63 44.7154 236.564 44.517 236.432 44.2525C236.167 43.8556 236.101 43.6572 236.233 43.6572ZM256.074 140.085L256.074 140.482C255.81 140.746 255.678 141.143 255.678 141.672L257.463 141.672C257.463 141.143 257 140.614 256.074 140.085ZM245.162 154.569C245.03 154.966 244.236 155.759 242.781 156.95C241.326 158.14 240.532 159 240.4 159.529C240.665 159.265 241.491 158.603 242.88 157.545C244.269 156.487 245.162 155.627 245.559 154.966C245.559 154.701 245.426 154.569 245.162 154.569ZM201.71 168.061C201.843 167.929 201.809 167.664 201.611 167.267C201.413 166.87 201.313 166.606 201.313 166.474L200.123 166.474C200.123 167.532 200.652 168.061 201.71 168.061ZM214.21 166.474C213.549 167.135 211.498 167.399 208.059 167.267C204.62 167.135 202.768 167.399 202.504 168.061C213.747 169.251 223.072 166.143 230.48 158.736C230.215 159 229.686 159.132 228.892 159.132C229.025 159.132 229.355 158.934 229.884 158.537C230.413 158.14 230.744 157.942 230.876 157.942L230.876 158.339C231.141 157.81 231.472 157.281 231.868 156.751C232.265 156.222 232.563 155.825 232.761 155.561C232.96 155.296 233.059 155.098 233.059 154.966C231.604 156.288 228.231 158.074 222.94 160.323C217.649 162.571 214.871 163.762 214.607 163.894C214.607 165.349 214.475 166.209 214.21 166.474ZM238.218 160.323C232.662 164.159 223.734 168.524 211.432 173.418C221.75 172.227 230.678 167.862 238.218 160.323ZM224.131 178.18C224.263 178.048 224.23 177.849 224.031 177.585C223.833 177.32 223.734 177.122 223.734 176.989C223.734 176.196 224.131 175.799 224.924 175.799C219.501 177.386 213.218 177.783 206.075 176.989C206.737 178.048 208.258 178.577 210.639 178.577C211.168 179.106 211.168 179.635 210.639 180.164C213.416 179.635 214.938 179.503 215.202 179.767C213.747 180.296 213.02 180.693 213.02 180.958C217.385 180.561 221.088 179.635 224.131 178.18ZM260.241 144.847C260.506 144.847 260.638 144.582 260.638 144.053C260.373 144.318 260.241 144.582 260.241 144.847L259.051 144.847C259.051 144.979 258.984 145.376 258.852 146.037C258.72 146.699 258.654 147.095 258.654 147.228C248.204 162.968 236.961 172.492 224.924 175.799C225.718 175.799 226.115 175.931 226.115 176.196C226.115 176.725 225.982 177.122 225.718 177.386L225.718 177.783C237.755 174.079 245.493 169.317 248.932 163.497C254.619 159 257.86 153.577 258.654 147.228C258.654 146.699 259.183 145.905 260.241 144.847ZM232.265 46.6334L231.868 46.6334C231.868 46.3688 232.001 46.2366 232.265 46.2366L232.265 46.6334ZM221.948 177.783L221.551 177.783L221.551 177.386L221.948 177.386L221.948 177.783ZM248.336 163.101C248.336 163.894 248.072 164.026 247.543 163.497C247.543 163.233 247.807 163.101 248.336 163.101ZM217.186 178.973C218.244 177.254 219.303 177.122 220.361 178.577C220.096 179.503 219.038 179.635 217.186 178.973Z" fill="#003366" fill-rule="nonzero" opacity="1" stroke="none"/>
<path d="M403.096 56.7523C403.096 58.4719 402.269 61.3489 400.616 65.3832C398.962 69.4176 398.069 72.0961 397.937 73.4189L390.993 89.2917L383.652 106.752L377.898 123.022C375.252 130.429 373.533 136.778 372.739 142.069C369.961 159 368.969 171.963 369.763 180.958C370.027 182.545 370.358 184.165 370.755 185.819C371.152 187.472 371.449 188.662 371.648 189.39C371.846 190.118 371.945 190.614 371.945 190.878C371.945 191.275 372.012 191.804 372.144 192.465C372.276 193.127 372.375 193.656 372.441 194.053C372.508 194.449 372.441 194.846 372.243 195.243C372.045 195.64 371.582 195.938 370.854 196.136C370.127 196.334 369.102 196.434 367.779 196.434C357.462 195.243 351.509 181.42 349.922 154.966C349.922 151.527 349.79 148.286 349.525 145.244L349.128 139.688C347.012 141.804 345.623 142.863 344.962 142.863C342.845 146.037 341.027 148.583 339.506 150.501C337.984 152.419 335.934 154.503 333.355 156.751C330.776 159 327.799 160.587 324.426 161.513C321.053 162.439 317.251 162.836 313.018 162.704C309.314 159 306.007 157.148 303.097 157.148C297.807 152.915 294.235 147.029 292.383 139.49C290.531 131.95 290.201 124.94 291.391 118.458C292.714 112.374 294.896 104.371 297.939 94.4504C301.378 84.7944 303.362 78.5775 303.891 75.7998L305.28 72.6252C306.867 71.0379 308.719 66.9374 310.835 60.3237C312.819 53.8423 315.333 49.0143 318.375 45.8397C321.417 42.6652 325.848 41.144 331.668 41.2763C333.785 43.3927 336.496 44.4509 339.803 44.4509C342.052 46.6995 343.771 50.8 344.962 56.7523L340.597 65.6808L335.637 75.0061C335.372 75.5352 334.644 77.1225 333.454 79.768C332.264 82.4135 331.106 85.059 329.982 87.7044C328.858 90.3499 328.031 92.334 327.502 93.6568C323.798 101.99 321.351 108.471 320.161 113.101C319.896 114.688 319.268 117.731 318.276 122.228C317.284 126.725 316.424 130.958 315.696 134.926C314.969 138.894 314.473 142.466 314.208 145.64C319.367 143.656 324.526 140.416 329.684 135.918C332.991 132.611 337.72 127.089 343.871 119.351C350.021 111.613 353.626 107.149 354.684 105.958C362.488 85.7203 370.755 65.3501 379.485 44.8477C380.279 44.8477 381.668 44.054 383.652 42.4668C386.429 42.0699 389.273 42.0699 392.183 42.4668C392.448 42.7313 392.58 43.6572 392.58 45.2445C393.241 45.2445 394.564 45.5421 396.548 46.1374C398.532 46.7326 399.789 47.0302 400.318 47.0302C400.715 47.6916 401.178 49.3119 401.707 51.8913C402.236 54.4706 402.699 56.091 403.096 56.7523ZM332.859 148.22C333.785 148.22 336.629 146.169 341.39 142.069C343.771 140.085 344.962 140.349 344.962 142.863L344.962 139.291C345.094 139.027 345.623 138.365 346.549 137.307C347.475 136.249 348.037 135.521 348.236 135.125C348.434 134.728 348.897 133.868 349.624 132.545C350.352 131.223 350.616 130.23 350.418 129.569C350.22 128.908 350.187 127.783 350.319 126.196C342.779 136.514 336.959 143.855 332.859 148.22ZM373.136 76.1966C373.136 75.7998 374.359 72.7575 376.806 67.0697C379.254 61.3819 380.477 57.2814 380.477 54.7682C378.096 57.1492 375.517 61.4481 372.739 67.6649L368.572 78.1807L369.763 76.9902C370.689 76.0643 371.813 75.7998 373.136 76.1966ZM374.326 111.117C373.93 111.514 373.301 112.605 372.441 114.391C371.582 116.176 370.953 117.268 370.557 117.664C370.557 117.797 370.689 118.061 370.953 118.458C371.218 118.855 371.35 119.119 371.35 119.252C366.721 125.733 364.604 133.471 365.001 142.466L365.993 141.474C366.655 140.812 366.985 140.217 366.985 139.688L366.588 140.085C366.324 140.349 366.059 140.349 365.795 140.085C366.192 139.291 366.192 138.431 365.795 137.506C366.192 137.373 366.853 136.844 367.779 135.918L367.382 135.521C367.117 135.257 366.985 134.86 366.985 134.331C368.44 133.537 368.969 131.884 368.572 129.371C371.747 122.889 373.665 116.805 374.326 111.117ZM353.097 130.76C354.022 130.098 354.816 128.809 355.477 126.891C356.139 124.973 356.734 122.856 357.263 120.541C357.792 118.227 358.189 116.739 358.454 116.077C354.485 120.707 353.097 124.609 354.287 127.783C354.419 128.18 354.254 128.676 353.791 129.272C353.328 129.867 353.097 130.363 353.097 130.76ZM309.645 77.7839C307.529 82.1489 305.478 87.7044 303.494 94.4504C307.992 87.1753 310.042 81.6198 309.645 77.7839ZM352.7 149.013C352.7 148.352 352.931 146.07 353.394 142.168C353.857 138.266 354.022 135.786 353.89 134.728C353.89 134.86 353.626 135.125 353.097 135.521C352.567 135.918 352.303 136.183 352.303 136.315C352.435 136.844 352.402 138.101 352.204 140.085C352.005 142.069 351.906 143.954 351.906 145.74C351.906 147.525 352.171 148.617 352.7 149.013ZM349.922 118.855L349.922 120.045C351.112 119.649 351.906 118.59 352.303 116.871C351.509 115.68 350.583 115.945 349.525 117.664C349.79 117.929 349.922 118.326 349.922 118.855ZM358.85 105.561L360.438 107.149L360.438 106.752L360.835 106.355C360.305 105.958 360.405 104.966 361.132 103.379C361.86 101.792 362.025 100.733 361.628 100.204C361.496 100.601 361 101.461 360.14 102.784C359.28 104.106 358.85 105.032 358.85 105.561ZM296.351 116.871C297.41 116.474 297.939 115.085 297.939 112.704C297.674 112.44 297.277 112.572 296.748 113.101C296.748 114.556 296.285 115.284 295.359 115.284C295.359 115.416 295.426 115.515 295.558 115.581C295.69 115.647 295.855 115.78 296.054 115.978C296.252 116.176 296.351 116.474 296.351 116.871ZM312.423 71.4347L312.026 72.2284C311.629 72.6252 311.265 72.989 310.935 73.3196C310.604 73.6503 310.174 73.8157 309.645 73.8157C309.777 74.0802 309.909 74.4109 310.042 74.8077C310.174 75.2045 310.273 75.5022 310.339 75.7006C310.405 75.899 310.439 76.0643 310.439 76.1966C310.968 75.6675 311.431 74.7416 311.827 73.4189L312.423 71.4347ZM362.025 163.894C362.554 163.365 362.819 162.704 362.819 161.91C362.686 161.91 362.488 161.612 362.223 161.017C361.959 160.422 361.628 160.058 361.231 159.926C361.231 160.984 361.496 162.307 362.025 163.894ZM312.423 71.4347C314.01 70.6411 314.605 69.649 314.208 68.4586C313.018 68.8554 312.423 69.8475 312.423 71.4347ZM346.747 122.228C345.292 122.757 344.565 123.683 344.565 125.006C345.755 124.477 346.483 123.551 346.747 122.228ZM362.025 167.664C362.29 167.664 362.422 167.399 362.422 166.87C362.686 166.606 362.819 166.209 362.819 165.68L362.422 165.283C362.157 165.019 361.893 164.886 361.628 164.886C361.628 166.474 361.76 167.399 362.025 167.664ZM299.526 107.149C300.055 106.091 300.187 105.231 299.923 104.569L299.923 105.165C299.394 106.223 299.262 106.884 299.526 107.149ZM364.207 97.0297L362.819 99.8075C364.67 99.4107 365.133 98.4848 364.207 97.0297ZM300.717 102.188C301.113 101.13 301.642 100.601 302.304 100.601C302.304 100.337 302.039 99.9398 301.51 99.4107C301.51 99.5429 301.411 99.8075 301.213 100.204C301.014 100.601 300.849 100.998 300.717 101.395C300.584 101.792 300.584 102.056 300.717 102.188ZM344.962 128.18C346.814 127.254 347.541 126.461 347.144 125.799C345.689 127.254 344.962 128.048 344.962 128.18ZM293.772 128.577C294.83 128.048 295.095 127.519 294.566 126.99C294.301 126.99 294.169 126.858 294.169 126.593C293.508 127.254 293.375 127.916 293.772 128.577ZM374.326 111.117C375.12 111.117 375.252 110.323 374.723 108.736C374.723 108.868 374.657 109.067 374.525 109.331C374.392 109.596 374.293 109.86 374.227 110.125C374.161 110.389 374.194 110.72 374.326 111.117ZM341.39 131.95L342.978 130.164C342.845 130.032 342.647 130.032 342.382 130.164C342.118 130.297 341.886 130.528 341.688 130.859C341.49 131.189 341.39 131.553 341.39 131.95ZM353.097 112.704C352.171 113.762 351.906 114.49 352.303 114.887C352.832 114.887 353.097 114.159 353.097 112.704ZM358.057 109.926C358.983 109.001 359.512 108.339 359.644 107.942C358.718 108.868 358.189 109.53 358.057 109.926ZM298.732 109.53C299.262 109.001 299.394 108.471 299.129 107.942C298.865 108.207 298.732 108.736 298.732 109.53ZM364.207 152.585C364.075 152.849 364.042 153.312 364.108 153.974C364.174 154.635 364.34 155.098 364.604 155.363C364.604 153.775 364.472 152.849 364.207 152.585ZM340.2 133.934C340.729 133.934 340.994 133.537 340.994 132.744C340.068 132.744 339.803 133.141 340.2 133.934ZM363.215 156.355C363.612 156.751 363.811 157.148 363.811 157.545C363.943 157.281 363.745 156.884 363.215 156.355ZM341.787 127.783L341.787 126.99L341.787 127.783ZM343.375 129.768C343.904 129.768 344.168 129.503 344.168 128.974C343.639 128.974 343.375 129.238 343.375 129.768ZM364.604 165.68L363.811 164.886C363.811 165.415 364.075 165.68 364.604 165.68ZM294.566 125.402L294.566 125.006L294.169 125.006L294.169 125.402L294.566 125.402ZM303.494 94.8472L303.494 94.4504L303.097 94.4504C303.097 94.715 303.23 94.8472 303.494 94.8472ZM353.493 112.307L353.097 112.704C353.361 112.704 353.493 112.572 353.493 112.307ZM363.811 90.879L363.215 90.879L363.215 91.2758L363.811 90.879Z" fill="#003366" fill-rule="nonzero" opacity="1" stroke="none"/>
<path d="M509.046 26.5939C518.173 27.7844 522.935 30.496 523.332 34.7287C523.596 36.316 523.001 37.5396 521.546 38.3993C520.091 39.2591 517.842 39.689 514.8 39.689C512.816 39.689 511.295 39.5567 510.237 39.2922C498.861 43.6572 486.428 52.5857 472.936 66.0776C467.645 70.7072 462.222 77.5855 456.666 86.7124L450.119 96.4345L445.754 103.379C445.754 103.114 445.919 102.618 446.25 101.891C446.58 101.163 446.68 100.469 446.547 99.8075C445.489 100.601 444.365 102.155 443.174 104.47C441.984 106.785 440.893 109.133 439.901 111.514C438.909 113.895 438.28 115.284 438.016 115.68C438.545 115.548 439.471 114.258 440.793 111.811C442.116 109.364 443.108 107.942 443.77 107.546C441.653 114.027 439.471 118.194 437.222 120.045C437.222 119.913 437.255 119.748 437.321 119.549C437.387 119.351 437.487 118.987 437.619 118.458C437.751 117.929 437.883 117.4 438.016 116.871C434.444 122.162 431.468 129.172 429.087 137.902C426.31 147.691 424.656 154.37 424.127 157.942L420.159 182.743C413.81 184.331 408.122 182.016 403.096 175.799L401.508 175.799L396.151 167.664C403.03 129.834 408.982 102.85 414.008 86.7124L414.008 84.7283C415.199 79.1728 417.778 70.2443 421.746 57.9428C426.773 41.9377 429.749 30.4298 430.675 23.4193C430.807 23.4193 431.27 22.6918 432.063 21.2368C432.857 19.7818 433.452 18.8559 433.849 18.459C438.611 17.6654 442.711 17.9299 446.151 19.2527C446.944 20.4432 448.399 21.6667 450.516 22.9233C452.632 24.1799 454.385 25.6018 455.773 27.1891C457.162 28.7764 457.857 31.0251 457.857 33.9351C457.195 36.5806 455.707 41.5078 453.392 48.7167C451.078 55.9256 449.854 59.7946 449.722 60.3237C451.706 58.7364 455.079 55.3635 459.841 50.2048L472.142 38.4985C475.978 35.324 480.508 32.5462 485.733 30.1653C490.958 27.7844 495.885 26.5939 500.515 26.5939L508.649 26.5939C506.004 27.3875 504.681 27.9166 504.681 28.1812C506.136 28.1812 507.591 27.6521 509.046 26.5939ZM485.634 43.6572L496.943 35.9192C495.753 36.316 494.959 36.1837 494.562 35.5224C497.34 33.5383 499.853 31.4219 502.102 29.1732C492.843 31.1573 485.436 35.324 479.88 41.6731C470.886 47.3609 462.618 55.4957 455.079 66.0776C455.608 66.0776 455.873 66.2099 455.873 66.4745C447.672 71.8977 442.248 81.0907 439.603 94.0536L446.944 86.3156C446.944 86.1833 446.812 85.9187 446.547 85.5219C446.283 85.1251 446.151 84.7283 446.151 84.3314C446.415 84.0669 447.176 83.3063 448.432 82.0497C449.689 80.7931 450.978 79.6027 452.301 78.4783C453.624 77.354 454.814 76.5934 455.873 76.1966C457.592 73.1543 460.205 69.649 463.71 65.6808C467.215 61.7126 471.117 57.5129 475.416 53.0817C479.715 48.6506 482.658 45.5091 484.245 43.6572C484.113 43.7895 484.047 43.7234 484.047 43.4588C483.914 42.7974 483.981 42.3345 484.245 42.0699C484.51 42.0699 484.642 42.3345 484.642 42.8636C484.642 43.3927 484.973 43.6572 485.634 43.6572ZM419.365 110.323C421.614 106.62 425.516 94.0536 431.071 72.6252C429.881 73.4189 428.591 75.9321 427.202 80.1648C425.814 84.3976 425.053 86.5801 424.921 86.7124C424.921 86.8447 425.053 86.9769 425.318 87.1092C425.582 87.2415 425.814 87.3737 426.012 87.506C426.21 87.6383 426.243 87.7706 426.111 87.9028C426.111 88.0351 426.012 88.1343 425.814 88.2005C425.615 88.2666 425.384 88.3658 425.119 88.4981C424.855 88.6304 424.656 88.7626 424.524 88.8949C424.524 89.8208 424.16 91.4081 423.433 93.6568C422.705 95.9054 422.54 97.6911 422.937 99.0139C422.672 99.0139 422.275 99.2784 421.746 99.8075C421.878 100.469 421.515 102.255 420.655 105.165C419.795 108.075 419.365 109.794 419.365 110.323ZM490.396 30.3637C471.878 40.8133 457.261 54.9005 446.547 72.6252C460.304 54.636 474.92 40.5488 490.396 30.3637ZM431.865 66.0776L431.865 63.6967C430.675 64.8872 430.675 65.6808 431.865 66.0776ZM512.022 33.9351C511.626 33.2737 511.03 33.1414 510.237 33.5383C510.501 33.8028 511.097 33.9351 512.022 33.9351ZM493.57 29.1732C492.512 29.1732 491.983 29.4378 491.983 29.9669C493.041 29.9669 493.57 29.7023 493.57 29.1732ZM491.586 47.0302C491.719 47.0302 492.248 46.5672 493.174 45.6413C492.644 45.6413 492.115 46.1043 491.586 47.0302ZM505.475 32.3478C506.269 32.3478 506.665 32.0833 506.665 31.5542C505.872 31.5542 505.475 31.8187 505.475 32.3478ZM439.206 102.188C439.868 102.188 440 101.792 439.603 100.998C439.338 100.998 439.206 101.395 439.206 102.188ZM419.365 97.0297L419.365 95.244L419.365 97.0297ZM497.34 26.9907C496.811 26.9907 496.546 27.2553 496.546 27.7844C497.605 27.7844 497.869 27.5198 497.34 26.9907ZM420.159 92.4663L420.159 92.8631L420.556 93.2599C421.085 92.7308 420.953 92.4663 420.159 92.4663ZM437.222 106.752C437.751 106.223 437.619 105.958 436.825 105.958C436.296 106.487 436.428 106.752 437.222 106.752Z" fill="#003366" fill-rule="nonzero" opacity="1" stroke="none"/>
</g>
</g>
<g clip-path="url(#ArtboardFrame)" id="Camada-2">
<path d="M706.877 141.82C706.877 134.952 712.444 129.385 719.312 129.385C726.179 129.385 731.746 134.952 731.746 141.82C731.746 148.687 726.179 154.254 719.312 154.254C712.444 154.254 706.877 148.687 706.877 141.82Z" fill="#003366" fill-rule="nonzero" opacity="0" stroke="none"/>
<g opacity="1">
<path d="M750.601 1.58373C761.675 1.58373 771.192 3.7034 779.152 7.94273C787.111 12.1821 793.297 18.4546 797.71 26.7602C802.122 35.0658 804.328 45.2749 804.328 57.3873L804.328 136.55L799.137 136.55L799.137 57.3873C799.137 40.776 794.898 28.1445 786.419 19.4928C777.94 10.8411 766.088 6.5152 750.861 6.5152C739.094 6.5152 728.972 8.89442 720.493 13.6529C712.014 18.4113 705.526 25.0731 701.027 33.6383C696.528 42.2035 694.278 52.1962 694.278 63.6165L694.278 136.55L689.087 136.55L689.087 2.36238L694.278 2.36238L694.278 40.5164L693.759 39.7378C697.739 27.9714 704.574 18.6709 714.264 11.836C723.954 5.00115 736.066 1.58373 750.601 1.58373Z" fill="#003366" fill-rule="nonzero" opacity="1" stroke="none"/>
<path d="M913.599 137.329C900.622 137.329 889.115 134.431 879.079 128.634C869.043 122.837 861.127 114.791 855.33 104.496C849.533 94.2003 846.635 82.4772 846.635 69.3266C846.635 56.003 849.317 44.2799 854.681 34.1574C860.045 24.0349 867.442 16.0753 876.873 10.2787C886.303 4.48205 896.901 1.58373 908.668 1.58373C920.434 1.58373 931.032 4.39553 940.463 10.0191C949.893 15.6428 957.334 23.4726 962.784 33.5085C968.235 43.5445 970.96 55.0513 970.96 68.0289C970.96 68.2019 970.96 68.3749 970.96 68.548C970.96 68.721 970.96 68.9805 970.96 69.3266L849.49 69.3266L849.49 64.3951L968.105 64.3951L966.029 68.2884C966.029 56.5221 963.52 45.967 958.502 36.6232C953.484 27.2793 946.692 19.9254 938.127 14.5613C929.562 9.19723 919.742 6.5152 908.668 6.5152C897.767 6.5152 887.99 9.19723 879.338 14.5613C870.687 19.9254 863.895 27.2793 858.964 36.6232C854.032 45.967 851.567 56.5221 851.567 68.2884L851.567 69.3266C851.567 81.612 854.249 92.5132 859.613 102.03C864.977 111.547 872.331 118.987 881.674 124.351C891.018 129.716 901.66 132.398 913.599 132.398C922.597 132.398 931.119 130.667 939.165 127.207C947.211 123.746 953.916 118.555 959.28 111.633L962.914 115.267C957.031 122.535 949.763 128.028 941.112 131.749C932.46 135.469 923.289 137.329 913.599 137.329Z" fill="#003366" fill-rule="nonzero" opacity="1" stroke="none"/>
<path d="M1037.15 136.55L985.495 2.36238L990.686 2.36238L1040.26 132.917L1038.18 132.917L1088.54 2.36238L1093.47 2.36238L1143.82 132.917L1141.74 132.917L1191.32 2.36238L1196.77 2.36238L1145.12 136.55L1140.45 136.55L1090.09 7.29386L1091.91 7.29386L1041.56 136.55L1037.15 136.55Z" fill="#003366" fill-rule="nonzero" opacity="1" stroke="none"/>
<path d="M1259.32 137.329C1248.42 137.329 1238.21 135.599 1228.69 132.138C1219.18 128.677 1211.91 124.265 1206.89 118.901L1210.01 114.748C1214.85 119.42 1221.6 123.53 1230.25 127.077C1238.9 130.624 1248.59 132.398 1259.32 132.398C1275.24 132.398 1286.66 129.629 1293.58 124.092C1300.5 118.555 1303.96 111.374 1303.96 102.549C1303.96 96.1469 1302.32 91.0857 1299.03 87.3654C1295.75 83.6452 1291.38 80.7901 1285.93 78.8002C1280.47 76.8103 1274.46 75.2098 1267.89 73.9985C1261.31 72.7873 1254.74 71.4895 1248.16 70.1053C1241.59 68.721 1235.57 66.7744 1230.12 64.2654C1224.67 61.7564 1220.3 58.2957 1217.01 53.8833C1213.73 49.4709 1212.08 43.5445 1212.08 36.104C1212.08 30.0479 1213.73 24.4242 1217.01 19.2332C1220.3 14.0422 1225.45 9.80285 1232.46 6.5152C1239.47 3.22755 1248.51 1.58373 1259.58 1.58373C1267.89 1.58373 1276.11 2.83823 1284.24 5.34722C1292.37 7.85622 1298.95 11.1871 1303.96 15.3399L1300.85 19.4928C1295.49 15.1669 1289.17 11.9225 1281.9 9.75959C1274.64 7.59667 1267.19 6.5152 1259.58 6.5152C1244.87 6.5152 1234.19 9.37027 1227.53 15.0804C1220.86 20.7905 1217.53 27.7984 1217.53 36.104C1217.53 42.6793 1219.18 47.9136 1222.47 51.8069C1225.75 55.7002 1230.12 58.685 1235.57 60.7614C1241.02 62.8378 1247.04 64.4817 1253.61 65.6929C1260.19 66.9041 1266.72 68.2019 1273.21 69.5862C1279.7 70.9704 1285.67 72.8738 1291.12 75.2963C1296.57 77.7188 1300.94 81.0497 1304.22 85.289C1307.51 89.5284 1309.16 95.2817 1309.16 102.549C1309.16 109.298 1307.34 115.31 1303.7 120.588C1300.07 125.866 1294.58 129.975 1287.22 132.917C1279.87 135.858 1270.57 137.329 1259.32 137.329Z" fill="#003366" fill-rule="nonzero" opacity="1" stroke="none"/>
</g>
<path d="M48.5789 68.6634L48.5789 137.329L1.22328 137.329L1.22328 68.6634L48.5789 68.6634Z" fill="#ffbe00" fill-rule="nonzero" opacity="1" stroke="none"/>
<path d="M166.148-0.00220661C176.617-0.00220661 186.088 2.11633 194.562 6.35341C203.036 10.5905 209.724 17.1123 214.626 25.9188C219.527 34.7252 221.978 46.1072 221.978 60.0646L221.978 137.329L174.623 137.329L174.623 67.7911C174.623 58.1538 172.67 51.1335 168.765 46.7303C164.861 42.3271 159.419 40.1254 152.44 40.1254C147.455 40.1254 142.886 41.247 138.732 43.4902C134.578 45.7333 131.338 49.1812 129.012 53.8336C126.685 58.4861 125.522 64.551 125.522 72.0282L125.522 137.329L78.1667 137.329L78.1667 2.24095L123.279 2.24095L123.279 40.6239L114.556 29.4081C119.707 19.6047 126.769 12.2521 135.741 7.35037C144.714 2.44865 154.85-0.00220661 166.148-0.00220661Z" fill="#ffbe00" fill-rule="nonzero" opacity="1" stroke="none"/>
<path d="M300.738 139.572C289.273 139.572 278.099 138.243 267.215 135.584C256.332 132.926 247.567 129.603 240.92 125.615L255.127 93.2136C261.441 97.0352 268.835 100.068 277.309 102.311C285.784 104.554 294.092 105.676 302.234 105.676C310.209 105.676 315.734 104.845 318.808 103.183C321.882 101.522 323.419 99.2784 323.419 96.4537C323.419 93.7951 321.965 91.8427 319.057 90.5965C316.149 89.3503 312.328 88.3949 307.592 87.7303C302.857 87.0656 297.664 86.3179 292.015 85.4871C286.365 84.6563 280.674 83.5347 274.942 82.1224C269.209 80.71 263.975 78.5499 259.24 75.6421C254.504 72.7343 250.724 68.788 247.899 63.8032C245.074 58.8184 243.662 52.5044 243.662 44.861C243.662 36.2207 246.196 28.5358 251.264 21.8063C256.332 15.0768 263.767 9.75969 273.571 5.85493C283.374 1.95017 295.338-0.00220661 309.461-0.00220661C318.933-0.00220661 328.528 0.953213 338.249 2.86405C347.969 4.77489 356.152 7.64115 362.799 11.4628L348.592 43.6148C341.946 39.7931 335.299 37.1761 328.653 35.7637C322.007 34.3514 315.692 33.6452 309.711 33.6452C301.735 33.6452 296.127 34.5591 292.887 36.3868C289.647 38.2146 288.027 40.4578 288.027 43.1163C288.027 45.7749 289.439 47.8103 292.264 49.2227C295.089 50.6351 298.869 51.7151 303.604 52.4628C308.34 53.2105 313.532 53.9583 319.182 54.706C324.831 55.4537 330.522 56.5753 336.255 58.0707C341.987 59.5662 347.221 61.7678 351.957 64.6756C356.692 67.5834 360.473 71.4881 363.297 76.3899C366.122 81.2916 367.534 87.5641 367.534 95.2075C367.534 103.515 365 110.993 359.933 117.639C354.865 124.285 347.387 129.603 337.501 133.59C327.614 137.578 315.36 139.572 300.738 139.572Z" fill="#ffbe00" fill-rule="nonzero" opacity="1" stroke="none"/>
<path d="M444.799 139.572C433.832 139.572 423.987 137.412 415.264 133.092C406.54 128.772 399.728 122.001 394.826 112.779C389.924 103.557 387.474 91.8843 387.474 77.7607L387.474 2.24095L434.829 2.24095L434.829 70.0342C434.829 80.5023 436.782 87.9795 440.686 92.4658C444.591 96.9522 450.116 99.1953 457.261 99.1953C461.913 99.1953 466.15 98.1153 469.972 95.9552C473.794 93.7951 476.868 90.3473 479.194 85.6117C481.52 80.8762 482.683 74.7698 482.683 67.2926L482.683 2.24095L530.039 2.24095L530.039 137.329L484.926 137.329L484.926 99.1953L493.65 109.913C488.997 119.882 482.268 127.318 473.461 132.22C464.655 137.121 455.101 139.572 444.799 139.572Z" fill="#ffbe00" fill-rule="nonzero" opacity="1" stroke="none"/>
<path d="M560.446 137.329L560.446 2.24095L605.559 2.24095L605.559 41.6209L598.829 30.4051C602.817 20.2693 609.297 12.6675 618.27 7.59961C627.242 2.53173 638.126-0.00220661 650.92-0.00220661L650.92 42.6178C648.76 42.2855 646.891 42.0778 645.312 41.9947C643.734 41.9117 642.031 41.8701 640.203 41.8701C630.566 41.8701 622.756 44.4871 616.774 49.7212C610.793 54.9552 607.802 63.4709 607.802 75.2683L607.802 137.329L560.446 137.329Z" fill="#ffbe00" fill-rule="nonzero" opacity="1" stroke="none"/>
<path d="M48.5789 26.4531C48.5789 39.8251 37.7387 50.6652 24.3667 50.6652C10.9947 50.6652 0.154592 39.8251 0.154592 26.4531C0.154592 13.0811 10.9947 2.24095 24.3667 2.24095C37.7387 2.24095 48.5789 13.0811 48.5789 26.4531Z" fill="#003366" fill-rule="nonzero" opacity="1" stroke="none"/>
</g>
</svg>
