<?xml version="1.0" encoding="UTF-8" standalone="no"?>
<!DOCTYPE svg PUBLIC "-//W3C//DTD SVG 1.1//EN" "http://www.w3.org/Graphics/SVG/1.1/DTD/svg11.dtd">
<!-- Created with Vectornator (http://vectornator.io/) -->
<svg height="100%" stroke-miterlimit="10" style="fill-rule:nonzero;clip-rule:evenodd;stroke-linecap:round;stroke-linejoin:round;" version="1.1" viewBox="0 0 816.15 173.2" width="100%" xml:space="preserve" xmlns="http://www.w3.org/2000/svg" xmlns:xlink="http://www.w3.org/1999/xlink">
<defs/>
<clipPath id="ArtboardFrame">
<rect height="173.2" width="816.15" x="0" y="0"/>
</clipPath>
<g clip-path="url(#ArtboardFrame)" id="Camada-1">
<g opacity="1">
<path d="M430.147 152.001C430.147 150.398 431.521 148.337 430.147 146.505C429.002 145.131 429.002 146.047 427.857 145.818C423.278 143.986 418.927 145.131 414.805 147.192C409.538 149.94 401.065 159.328 404.271 166.198C405.187 168.03 409.309 171.694 410.912 172.381C415.263 174.67 417.553 171.694 420.301 169.175C423.507 166.198 425.796 165.053 427.399 161.389C427.857 160.473 433.353 152.001 430.147 152.001Z" fill="#ff6600" fill-rule="nonzero" opacity="1" stroke="none"/>
</g>
<path d="M17.1744 173.2L17.1744 54.1259C17.1744 37.9441 22.0215 25.0444 31.7155 15.4269C41.4095 5.80935 55.1872 1.00059 73.0487 1.00059C78.5445 1.00059 84.0785 1.49673 89.6506 2.48901C95.2228 3.4813 99.9171 5.04605 103.734 7.18328L91.3681 43.1345C89.6888 42.3712 87.8568 41.6842 85.8722 41.0736C83.8876 40.463 81.8267 40.1576 79.6894 40.1576C76.0256 40.1576 73.0487 41.3026 70.7587 43.5925C68.4688 45.8823 67.3238 49.5462 67.3238 54.5839L67.3238 60.5376L68.9268 81.8336L68.9268 173.2L17.1744 173.2ZM-4.26326e-14 92.596L-4.26326e-14 55.0691L94.574 55.0691L94.6344 92.6776L-4.26326e-14 92.596Z" fill="#000000" fill-rule="nonzero" opacity="1" stroke="none"/>
<path d="M168.823 173.2C151.853 173.2 138.638 169.108 129.177 160.924C119.717 152.74 114.986 140.163 114.986 123.194L114.986 20.0282L165.894 20.0282L165.894 122.743C165.894 126.498 166.908 129.426 168.935 131.528C170.962 133.631 173.478 134.682 176.481 134.682C180.836 134.682 184.666 133.556 187.969 131.303L200.133 166.668C196.229 168.92 191.536 170.572 186.055 171.623C180.573 172.674 174.829 173.2 168.823 173.2ZM94.3532 92.6776L93.6275 55.0691L211.952 55.0691L213.546 92.6804L94.3532 92.6776Z" fill="#000000" fill-rule="nonzero" opacity="1" stroke="none"/>
<g opacity="1">
<path d="M234.884 173.2L193.851 55.0691L240.067 55.0691L271.166 150.956L248.922 150.956L281.532 55.0691L322.998 55.0691L354.097 150.956L332.5 150.956L364.679 55.0691L407.44 55.0691L366.407 173.2L318.894 173.2L294.058 97.1816L308.312 97.1816L282.396 173.2L234.884 173.2Z" fill="#000000" fill-rule="nonzero" opacity="1" stroke="none"/>
</g>
<g opacity="1">
<path d="M528.994 103.847C528.489 101.493 527.144 101.156 525.462 101.829C522.267 103.342 519.072 106.706 516.046 108.723C509.151 113.095 502.257 116.627 494.858 120.326C494.858 120.158 494.69 119.822 494.521 119.317C494.69 120.158 494.521 120.494 494.353 120.662C492.672 113.432 490.99 106.201 489.645 98.8023C490.318 101.997 491.831 107.378 493.008 111.918C491.495 104.856 489.645 96.1118 489.813 96.1118C489.477 96.2799 489.477 96.6162 489.477 96.9526C489.14 94.9347 488.636 92.4124 488.972 90.2264C489.14 87.7041 490.486 85.518 491.327 83.1639C491.158 84.341 490.822 85.8544 490.822 85.8544C491.831 86.0225 492.504 79.8008 492.504 79.1282C492.335 78.1193 490.149 74.9243 490.149 75.7651C485.609 71.5612 476.697 80.8097 475.352 84.8454C474.343 87.5359 474.343 90.3945 474.511 93.2532C474.679 96.1118 475.52 98.6341 476.36 101.325C476.865 103.342 476.192 104.688 476.36 106.874C476.697 110.237 477.874 113.6 478.547 116.795C479.219 119.317 481.405 124.362 480.901 126.716C480.564 129.07 475.52 131.088 473.334 132.433C470.475 134.283 467.616 136.469 464.758 138.655C459.713 142.522 454.332 147.399 452.314 153.621C451.978 154.461 450.801 158.161 451.978 158.833C452.146 159.002 452.65 156.143 452.818 155.807C450.632 166.905 461.563 172.286 471.82 172.454C483.423 172.79 491.495 166.064 495.53 155.638C497.212 151.098 497.716 146.39 497.548 141.682C497.548 138.487 497.212 135.46 496.708 132.433C496.371 129.743 496.035 129.911 497.885 128.397C499.23 127.389 501.248 126.716 502.593 126.043C507.974 123.185 512.851 119.822 517.727 116.29C521.259 113.768 529.666 109.396 528.994 104.015L528.994 103.847ZM461.058 161.692C456.686 160.347 461.058 153.452 462.572 151.266C465.094 147.903 468.793 145.381 472.157 143.027L477.201 139.664C477.706 139.327 480.901 136.805 479.892 137.141L481.91 135.964L480.733 136.973C481.069 136.805 481.573 136.637 481.91 136.301C482.078 140.336 482.078 144.372 480.901 148.408C480.733 149.08 477.538 155.807 476.192 157.152L477.033 156.479C475.52 158.329 473.838 159.842 471.82 161.019C471.82 160.851 473.334 159.842 473.165 159.674L468.457 161.524C466.103 162.028 463.412 162.533 461.058 161.692ZM482.246 166.569C477.874 168.418 473.67 169.259 469.13 169.427C477.369 168.923 485.945 164.887 490.822 157.993C488.972 161.692 486.618 164.551 482.246 166.569ZM494.521 118.813C494.353 117.636 494.017 115.954 493.513 114.104C493.849 115.954 494.185 117.804 494.521 118.813ZM496.708 136.301C496.539 136.133 496.539 135.796 496.539 135.46C496.539 135.796 496.708 136.133 496.708 136.301Z" fill="#ff6600" fill-rule="nonzero" opacity="1" stroke="none"/>
<path d="M594.071 101.493C594.071 101.493 594.239 101.661 594.071 101.325C593.23 100.147 592.053 100.988 590.876 101.325C585.999 102.333 580.954 103.511 575.91 104.351C577.759 98.2978 579.609 91.9079 580.282 85.6862C580.618 83.332 580.786 80.8097 580.282 78.4556C579.945 76.9422 579.441 75.4288 578.6 74.0835C578.6 74.0835 576.582 71.5612 577.087 72.9065L576.919 72.7383L576.246 71.3931L576.919 72.0657C577.087 71.0568 574.228 69.2071 574.228 69.2071C570.024 65.0032 564.307 61.8083 558.589 65.0032C555.058 67.0211 552.2 70.3841 549.845 73.7472C549.005 74.9243 548.164 76.2696 547.491 77.6148C546.818 78.96 545.81 83.332 544.801 84.0047C543.96 84.6773 541.437 84.8454 540.26 85.518C538.579 86.1907 537.065 87.0314 535.72 88.0404C532.525 90.0582 530.003 92.9168 527.649 95.7755C523.613 101.156 521.595 107.21 518.736 112.591C513.355 122.848 519.241 136.301 529.162 141.177C532.357 142.691 536.056 143.363 539.42 143.027C542.951 142.522 546.314 140.673 549.005 138.655C551.527 136.805 557.076 133.442 558.085 130.583C558.085 130.415 557.749 130.583 557.244 131.088L562.121 125.371C562.289 125.539 560.944 127.22 560.944 127.22C562.121 127.725 568.174 118.813 568.847 118.14C570.024 116.122 571.201 113.936 572.547 111.918C573.724 110.405 573.387 110.573 575.069 109.9C574.901 110.069 577.087 109.396 577.423 109.396C579.273 109.06 598.947 107.714 594.071 101.493ZM535.888 135.46L535.72 135.46C521.763 137.478 537.906 107.883 538.242 106.201L537.233 107.714C539.756 102.67 542.11 98.6341 543.287 97.2889C545.137 105.697 554.217 108.892 561.616 109.9C556.74 119.653 547.659 133.274 535.888 135.46ZM569.015 88.8811C567.838 93.5895 566.829 99.8112 564.307 104.015C563.466 105.697 563.971 105.192 562.289 105.528C561.28 105.865 559.094 105.528 558.085 105.36C556.235 105.192 554.049 104.856 552.704 103.679C550.35 101.661 550.686 98.4659 551.022 95.6073C551.359 92.7487 552.2 90.0582 553.208 87.3677C553.713 86.3588 556.908 80.9779 556.403 79.969C556.235 79.4645 554.386 82.4913 554.217 82.6594C555.226 80.8097 556.235 79.8008 557.076 78.6237C556.908 78.6237 557.076 78.4556 557.244 78.1193L557.244 78.2874L557.412 77.9511C557.412 77.9511 557.412 77.7829 557.581 77.7829C560.103 74.4199 566.325 66.8529 569.688 72.0657C572.21 76.4377 569.856 84.6773 569.015 88.8811ZM557.412 77.9511L557.581 77.7829C557.581 77.9511 557.412 77.9511 557.412 77.9511Z" fill="#ff6600" fill-rule="nonzero" opacity="1" stroke="none"/>
<path d="M643.341 112.255C644.854 110.069 650.908 103.679 648.386 100.82C645.022 97.457 636.278 111.414 634.933 113.095C632.242 116.627 629.384 119.99 626.693 123.353C625.18 125.203 623.666 127.052 621.985 128.734C621.649 129.07 618.454 133.106 618.79 133.106C619.294 132.938 619.799 132.601 620.303 132.265C617.445 135.292 613.577 137.982 610.046 140.673C607.691 142.354 603.151 146.054 600.293 144.036C599.115 143.363 598.779 141.682 598.443 140.505C597.266 135.292 598.106 129.07 598.947 123.689C600.797 112.423 604.496 101.325 609.037 90.7308C611.223 85.8544 613.409 80.9779 617.276 77.2785C617.613 76.9422 618.285 77.6148 618.454 77.4466C618.79 77.2785 617.445 76.774 617.276 76.9422C615.427 77.9511 614.25 79.969 613.241 81.8187C610.214 86.6951 607.86 92.0761 605.842 97.457C607.355 93.2532 609.037 89.0493 611.055 84.8454C612.232 82.6594 613.577 79.1282 615.763 77.4466C621.48 72.9065 619.294 87.8722 618.622 90.0582C618.622 89.8901 619.294 86.1907 619.126 86.1907C618.79 86.1907 616.436 94.7665 616.436 94.7665L617.276 94.0939C616.436 95.4392 614.754 96.4481 616.94 97.9615C619.631 99.8112 624.844 96.6162 626.021 94.2621C627.198 91.7398 627.534 88.3767 627.702 85.8544C628.039 81.4823 626.861 78.96 625.348 75.5969C623.666 72.0657 622.153 69.8797 617.613 69.2071C613.913 68.7026 610.55 70.216 607.691 72.402C603.488 75.4288 600.293 79.2963 597.602 83.6683C596.929 84.8454 590.876 97.1207 591.044 97.2889L591.717 96.4481C590.876 98.2978 590.371 100.147 589.699 101.829C589.53 101.829 590.035 100.316 589.867 100.316C588.858 100.147 585.831 109.396 585.663 110.237C584.486 113.768 583.645 117.299 583.477 120.999C583.309 125.034 582.636 129.07 582.468 133.274C582.468 135.46 582.468 137.814 582.804 140C582.804 140.673 584.149 144.204 584.149 143.195L584.99 146.054C584.822 145.886 584.149 144.204 584.149 144.204C583.309 145.213 587.849 151.771 588.858 152.78C590.203 154.293 592.221 154.966 594.239 155.302C600.965 156.143 607.355 152.275 612.232 148.24C620.64 141.177 628.879 132.433 635.101 123.353C637.623 119.485 640.482 115.954 643.341 112.255ZM594.071 99.9793C593.734 101.661 593.23 103.511 592.557 105.024C592.053 106.201 590.539 107.21 590.371 108.051C590.708 105.192 592.894 102.333 594.239 99.1386C594.239 99.4749 594.071 99.8112 594.071 99.9793ZM587.849 119.653C587.176 120.83 587.176 123.016 587.176 124.866C587.008 122.848 587.008 120.662 587.681 118.644C587.681 118.644 588.185 119.317 587.849 119.653ZM599.956 115.618C600.629 112.927 601.47 110.237 602.31 107.546L599.956 115.618ZM588.185 116.458C588.017 116.963 587.681 117.636 587.681 117.972C587.681 117.131 587.681 116.29 588.522 115.954L588.185 116.458ZM602.983 105.528C602.815 105.697 602.815 105.697 602.815 105.865C602.815 105.528 602.815 105.192 602.983 104.856L602.983 105.528Z" fill="#ff6600" fill-rule="nonzero" opacity="1" stroke="none"/>
<path d="M680.672 101.997C680.335 99.8112 677.981 100.484 676.804 101.325C675.291 102.333 666.883 113.432 667.556 114.272C668.06 114.272 668.396 114.272 668.733 113.936C666.378 116.795 662.006 119.99 658.811 122.512C656.962 124.025 652.421 128.229 649.731 126.884C644.013 124.025 655.616 103.847 655.112 103.679C654.607 103.511 650.403 112.927 649.563 115.113C651.581 109.228 654.271 103.342 657.466 98.1296C657.298 98.6341 656.793 99.4749 657.13 99.4749C657.466 99.643 659.988 96.1118 659.484 95.7755C659.316 95.7755 658.979 95.7755 658.811 95.9436C659.316 95.4392 660.157 95.271 660.157 94.2621C660.157 92.5805 656.289 90.899 654.944 90.3945C651.749 89.0493 648.554 88.713 646.031 90.3945C642.668 92.4124 641.996 96.4481 640.65 99.9793C640.314 100.988 637.119 112.927 637.792 113.095C638.128 112.927 638.128 112.759 638.296 112.423L637.792 115.45C637.623 115.45 637.96 114.609 637.623 114.609C636.278 114.609 636.615 120.662 636.783 121.503C637.455 124.53 639.81 126.716 641.659 129.238C642.668 130.752 643.677 132.265 645.191 133.274C647.208 134.787 645.863 133.274 647.208 133.947L646.872 133.947C646.704 134.955 653.094 136.637 654.439 136.469C660.325 135.124 664.529 127.893 667.892 123.353C671.087 119.317 673.777 115.281 676.636 111.078C678.318 108.892 681.344 105.192 680.672 101.997ZM651.244 80.8097C651.581 81.3142 651.076 81.9868 652.253 82.6594C653.43 83.1639 654.103 82.4913 655.112 82.155C657.13 81.3142 658.643 79.1282 660.157 77.7829C660.661 77.4466 659.652 77.6148 659.652 77.6148C661.838 75.5969 659.988 77.9511 662.006 76.774C664.024 75.4288 664.361 73.2428 666.042 71.3931C664.024 72.2338 662.511 73.4109 661.166 75.0925C659.484 77.2785 658.307 78.2874 656.457 79.4645C658.475 77.9511 659.484 76.4377 661.166 73.7472C661.67 73.2428 662.174 72.9065 662.847 72.5702C662.343 72.0657 662.343 71.5612 663.015 71.0568C663.52 70.216 664.529 69.8797 665.033 69.0389C665.874 67.8618 665.706 66.3484 666.715 65.1714C667.556 64.4987 668.733 63.9943 669.405 63.3217C670.919 61.9764 672.6 59.4541 671.928 57.2681C671.255 55.2502 669.573 52.7279 667.724 51.5508C665.538 50.3738 662.511 49.8693 660.157 50.8782C659.652 51.0464 657.634 51.5508 658.307 52.2235C658.475 52.5598 658.643 52.5598 658.979 52.5598C657.466 53.7369 654.944 55.7547 658.475 57.0999C658.139 57.4363 658.475 58.9496 658.475 59.1178C658.307 60.2949 655.953 66.5166 654.439 69.5434L656.457 66.5166C655.28 69.0389 653.935 71.3931 652.421 73.4109C653.43 71.2249 651.412 73.7472 651.412 74.2517C649.563 73.4109 650.067 78.6237 650.235 79.1282C650.235 79.2963 651.244 80.8097 651.244 80.8097ZM648.049 120.83L648.049 120.999L647.713 122.008L648.049 120.662C648.217 120.494 648.217 120.494 648.049 120.83ZM653.598 70.8886C653.598 70.8886 653.935 70.5523 654.271 69.8797L653.598 70.8886ZM651.917 74.0835C651.917 74.2517 651.917 74.2517 651.749 74.4199C651.749 74.4199 651.749 74.2517 651.581 74.2517C651.749 74.2517 651.749 74.2517 651.917 74.0835Z" fill="#ff6600" fill-rule="nonzero" opacity="1" stroke="none"/>
<path d="M753.988 102.838C753.82 99.1386 750.793 102.333 749.785 103.679C747.598 106.874 745.581 110.237 743.563 113.432C739.022 120.326 734.482 127.22 729.269 133.778C711.949 155.134 724.056 117.131 722.711 117.467C722.039 117.636 721.534 120.158 721.366 120.662C722.711 114.609 725.234 107.378 728.429 101.493C730.278 97.7933 732.464 94.7665 729.101 90.7308C722.879 83.1639 715.649 90.0582 711.613 95.271C709.931 88.8811 706.568 79.4645 698.328 79.4645C694.629 79.4645 692.443 81.3142 689.92 83.5002C688.407 84.5091 687.23 84.6773 685.885 85.8544C683.699 87.3677 682.185 89.7219 680.672 91.7398C674.954 100.147 670.919 110.741 669.069 120.494C668.228 125.203 667.892 130.415 669.237 135.124C670.078 137.814 673.105 143.868 676.972 143.363C677.14 143.363 676.804 143.195 676.3 142.859C678.654 143.531 681.344 143.195 683.362 141.85C683.53 142.186 681.513 143.027 681.513 143.027C683.362 145.886 697.151 129.238 698.16 127.725C700.346 124.698 701.86 121.503 703.878 118.308C705.391 115.954 707.745 112.927 709.427 110.405C709.259 111.582 709.259 113.095 709.259 113.095C706.232 122.68 703.373 133.106 707.409 143.027C709.259 148.072 713.799 152.78 719.516 151.771C724.561 150.93 728.765 146.054 731.792 142.186C735.491 137.814 738.686 132.938 741.881 127.893C744.572 123.353 747.094 118.813 749.28 113.768C750.625 110.573 754.325 106.706 753.988 102.838ZM705.727 104.015C704.886 105.192 704.046 106.369 703.373 107.546L699.001 113.768C696.142 117.972 693.115 122.008 689.92 125.875C689.08 127.052 685.044 132.265 683.362 131.761C680.84 130.92 683.53 122.176 683.867 120.83C684.371 118.476 693.284 92.5805 695.638 92.0761C692.611 91.9079 682.858 122.344 682.353 124.866C683.699 116.627 686.725 108.555 690.089 100.988C691.938 97.1207 696.142 86.8633 701.691 86.8633C704.718 86.8633 705.391 93.085 705.895 95.1029C705.727 94.7665 704.214 89.8901 704.046 90.0582C703.205 90.7308 706.568 99.9793 706.568 101.325C706.568 102.67 706.568 102.67 705.727 104.015ZM709.595 112.255C709.595 112.255 710.099 109.9 710.268 109.396L711.108 108.219L709.595 112.255ZM707.073 101.829L707.073 100.147C707.577 100.82 707.577 101.325 707.073 101.829Z" fill="#ff6600" fill-rule="nonzero" opacity="1" stroke="none"/>
<path d="M808.976 100.484C806.622 103.006 805.108 107.21 803.259 110.237C800.4 115.113 797.541 119.822 794.514 124.53C788.797 133.61 783.08 142.859 776.185 151.098C773.327 154.63 767.273 163.205 761.556 162.533C757.352 161.86 757.352 154.63 757.352 151.435C757.352 148.744 757.52 146.054 757.856 143.531C758.024 142.018 759.369 136.973 758.529 135.628L757.183 140.673C757.352 138.655 757.688 136.469 758.192 134.451C758.024 134.115 759.538 129.406 759.874 127.893C760.715 124.53 761.556 121.167 762.564 117.804C763.405 114.441 764.246 111.246 765.255 108.051C766.096 105.024 767.273 103.511 769.123 101.156C776.69 91.7398 783.584 81.4823 789.974 71.2249C792.328 67.3574 793.842 63.9943 796.7 60.7993C800.904 56.4273 803.763 49.8693 806.454 44.4884C810.994 35.7443 817.047 23.6372 816.039 13.3798L816.039 12.539L815.87 12.3709C814.861 5.81283 808.808-1.92228 801.409 0.431886C797.541 1.60897 794.683 5.64468 792.328 8.5033L788.461 13.7161C787.62 14.725 786.443 17.2473 785.602 18.5926L785.77 18.4244L780.389 27.6729L781.734 24.8143C780.894 24.6461 777.194 31.8768 776.69 32.7175C774.84 35.9125 773.158 39.1074 771.645 42.3023C768.282 49.0285 764.919 55.9229 762.733 63.1535C760.378 70.3841 757.688 77.4466 755.166 84.6773C753.82 88.5448 752.475 92.5805 751.298 96.4481C750.289 99.643 747.935 104.856 748.439 108.219L748.944 108.219C748.439 109.396 748.103 110.573 747.767 111.75C747.935 110.741 747.935 109.564 748.103 109.228C747.262 110.405 747.43 114.441 747.262 114.777C745.076 123.857 742.554 132.938 741.881 142.354C741.377 151.266 741.377 163.037 748.439 169.595C756.343 176.826 765.423 171.949 771.981 165.728C779.717 158.161 786.275 149.249 792.328 140.505C797.878 132.433 802.25 123.857 807.294 115.786C809.312 112.423 811.498 109.06 812.507 105.36C813.18 102.67 812.844 96.4481 808.976 100.484ZM787.956 40.2845C791.319 32.2131 794.683 23.9735 799.391 16.4066C800.568 14.5569 808.135 4.46759 807.799 13.3798L807.799 13.5479C807.463 22.9646 801.409 32.8857 797.373 40.9571L790.31 54.0732C787.956 58.1089 783.92 63.1535 782.575 67.5255C783.584 64.835 786.611 60.9675 788.124 58.4452C790.647 54.2413 792.833 50.0375 795.187 45.8336C799.055 38.4348 803.259 30.6997 806.117 22.6283C798.55 45.161 784.425 66.1803 771.981 86.1907C776.858 71.3931 781.734 55.2502 787.956 40.2845ZM782.575 28.5137C784.257 25.3187 787.284 22.6283 788.965 19.6015C785.434 26.664 781.062 33.0539 777.362 39.78C777.362 39.6119 777.362 39.2756 777.53 39.1074C779.044 35.408 780.725 32.0449 782.575 28.5137ZM750.793 115.45C750.625 115.786 750.625 115.954 750.625 115.954C748.607 120.662 748.439 127.052 747.43 132.097C747.262 133.274 746.926 134.283 746.926 135.46L746.926 134.955L746.421 140.336C746.758 134.283 747.43 128.061 748.607 122.176L748.607 122.344C749.112 118.476 749.953 114.945 750.625 114.945C750.962 114.777 750.962 115.281 750.793 115.45Z" fill="#ff6600" fill-rule="nonzero" opacity="1" stroke="none"/>
</g>
</g>
</svg>
